<svg width="19" height="17" viewBox="0 0 19 17" fill="none" xmlns="http://www.w3.org/2000/svg">
<path fill-rule="evenodd" clip-rule="evenodd" d="M0.638672 1.38086C0.638672 0.828575 1.08639 0.380859 1.63867 0.380859H17.6387C18.191 0.380859 18.6387 0.828575 18.6387 1.38086C18.6387 1.93314 18.191 2.38086 17.6387 2.38086H1.63867C1.08639 2.38086 0.638672 1.93314 0.638672 1.38086ZM0.638672 8.38086C0.638672 7.82857 1.08639 7.38086 1.63867 7.38086H9.63867C10.191 7.38086 10.6387 7.82857 10.6387 8.38086C10.6387 8.93314 10.191 9.38086 9.63867 9.38086H1.63867C1.08639 9.38086 0.638672 8.93314 0.638672 8.38086ZM1.63867 14.3809C1.08639 14.3809 0.638672 14.8286 0.638672 15.3809C0.638672 15.9331 1.08639 16.3809 1.63867 16.3809H13.6387C14.191 16.3809 14.6387 15.9331 14.6387 15.3809C14.6387 14.8286 14.191 14.3809 13.6387 14.3809H1.63867Z" fill="white"/>
</svg>
