<svg width="19" height="19" viewBox="0 0 19 19" fill="none" xmlns="http://www.w3.org/2000/svg">
<path fill-rule="evenodd" clip-rule="evenodd" d="M1.94452 12.8726L4.48452 12.5826C5.09452 12.5126 5.69452 12.7226 6.12452 13.1526L7.96452 14.9926C10.7945 13.5526 13.1145 11.2426 14.5545 8.40256L12.7045 6.55256C12.2745 6.12256 12.0645 5.52256 12.1345 4.91256L12.4245 2.39256C12.5445 1.38256 13.3945 0.622559 14.4145 0.622559H16.1445C17.2745 0.622559 18.2145 1.56256 18.1445 2.69256C17.6145 11.2326 10.7845 18.0526 2.25452 18.5826C1.12452 18.6526 0.184521 17.7126 0.184521 16.5826V14.8526C0.174521 13.8426 0.934519 12.9926 1.94452 12.8726Z" fill="white"/>
</svg>
