<svg width="21" height="21" viewBox="0 0 21 21" fill="none" xmlns="http://www.w3.org/2000/svg">
<path fill-rule="evenodd" clip-rule="evenodd" d="M18.5205 0.604492H2.52051C1.42051 0.604492 0.530508 1.50449 0.530508 2.60449L0.520508 20.6045L4.52051 15.6045H18.5205C19.6205 15.6045 20.5205 14.7045 20.5205 13.6045V2.60449C20.5205 1.50449 19.6205 0.604492 18.5205 0.604492ZM11.5205 11.6045H5.52051C4.97051 11.6045 4.52051 11.1545 4.52051 10.6045C4.52051 10.0545 4.97051 9.60449 5.52051 9.60449H11.5205C12.0705 9.60449 12.5205 10.0545 12.5205 10.6045C12.5205 11.1545 12.0705 11.6045 11.5205 11.6045ZM15.5205 6.60449H5.52051C4.97051 6.60449 4.52051 6.15449 4.52051 5.60449C4.52051 5.05449 4.97051 4.60449 5.52051 4.60449H15.5205C16.0705 4.60449 16.5205 5.05449 16.5205 5.60449C16.5205 6.15449 16.0705 6.60449 15.5205 6.60449Z" fill="white"/>
</svg>
