<svg width="17" height="21" viewBox="0 0 17 21" fill="none" xmlns="http://www.w3.org/2000/svg">
<path fill-rule="evenodd" clip-rule="evenodd" d="M0.951172 1.38086C0.951172 0.828575 1.39889 0.380859 1.95117 0.380859H15.9512C16.5035 0.380859 16.9512 0.828575 16.9512 1.38086V18.8808C16.1228 18.8808 15.4512 19.5524 15.4512 20.3808H14.4512C14.4511 19.5524 13.7796 18.8808 12.9512 18.8808C12.1228 18.8808 11.4512 19.5524 11.4512 20.3808H10.4512C10.4511 19.5524 9.77957 18.8808 8.95117 18.8808C8.12277 18.8808 7.45122 19.5524 7.45117 20.3808H6.45117C6.45113 19.5524 5.77957 18.8808 4.95117 18.8808C4.12277 18.8808 3.45122 19.5524 3.45117 20.3808H2.45117C2.45113 19.5524 1.77957 18.8808 0.951172 18.8808V1.38086ZM10.3675 12.1692C9.50474 12.7252 8.42152 12.9744 7.28078 12.7635C5.47861 12.428 4.0407 10.9135 3.81064 9.09221C3.44637 6.20692 5.90039 3.80091 8.80496 4.26102C10.6071 4.54859 12.0546 6.02479 12.3518 7.81731C12.5339 8.92925 12.2751 9.95492 11.7383 10.8081L13.8472 12.9073C14.2211 13.2812 14.2211 13.8946 13.8472 14.2685C13.4638 14.6519 12.8503 14.6519 12.4764 14.2781L10.3675 12.1692ZM5.65698 8.43959C5.65698 7.14077 6.7111 6.08665 8.00992 6.08665C9.30875 6.08665 10.3629 7.14077 10.3629 8.43959C10.3629 9.73841 9.30875 10.7925 8.00992 10.7925C6.7111 10.7925 5.65698 9.73841 5.65698 8.43959Z" fill="white"/>
</svg>
