<svg width="9" height="11" viewBox="0 0 9 11" fill="none" xmlns="http://www.w3.org/2000/svg">
<path fill-rule="evenodd" clip-rule="evenodd" d="M7.05086 0.455398L4.55086 2.9554L2.05086 0.455398C1.77471 0.179255 1.327 0.179255 1.05086 0.455398C0.774715 0.73154 0.774714 1.17926 1.05086 1.4554L3.84375 4.24829C4.23427 4.63882 4.86744 4.63882 5.25796 4.24829L8.05086 1.4554C8.327 1.17926 8.327 0.73154 8.05086 0.455398C7.77471 0.179255 7.327 0.179256 7.05086 0.455398ZM7.05086 6.4554L4.55086 8.9554L2.05086 6.4554C1.77471 6.17926 1.327 6.17926 1.05086 6.4554C0.774715 6.73154 0.774714 7.17926 1.05086 7.4554L3.84375 10.2483C4.23427 10.6388 4.86744 10.6388 5.25796 10.2483L8.05086 7.4554C8.327 7.17926 8.327 6.73154 8.05086 6.4554C7.77471 6.17926 7.327 6.17926 7.05086 6.4554Z" fill="#41F6D7"/>
</svg>
