<svg width="21" height="21" viewBox="0 0 21 21" fill="none" xmlns="http://www.w3.org/2000/svg">
<path d="M8.49586 13.8392L8.90464 13.4303L7.18778 11.7131L6.779 12.122L6.57461 11.9175C6.24759 11.5496 5.92057 11.3451 5.59355 11.386C5.34828 11.386 5.14389 11.5496 4.98038 11.7949C4.73512 12.2037 4.85775 12.6535 4.89863 12.9397C4.89863 13.0214 4.9395 13.0623 4.9395 13.1441C4.9395 13.2668 4.9395 13.4303 4.65336 13.4712C4.24458 13.5938 3.71317 13.7165 3.18176 14.0027C2.44597 14.4116 1.95543 14.7795 1.66929 15.1475C0.156816 17.11 0.238571 18.7863 0.238571 18.8681C0.238571 18.9907 0.279449 19.0725 0.361204 19.1134L1.4649 20.2582C1.54666 20.34 1.62841 20.3809 1.71017 20.3809C1.71017 20.3809 1.75105 20.3809 1.8328 20.3809C2.24158 20.3809 3.71317 20.2991 5.43004 18.9499C5.79794 18.6637 6.16584 18.173 6.57461 17.4371C6.86076 16.9465 7.02427 16.415 7.10602 15.9652C7.18778 15.679 7.31041 15.679 7.43304 15.679C7.47392 15.679 7.55568 15.7199 7.63743 15.7199C7.80094 15.7608 7.96445 15.8017 8.16884 15.8017C8.37323 15.8017 8.57762 15.7608 8.78201 15.6381C9.02727 15.4746 9.19078 15.2702 9.23166 15.0248C9.27254 14.6978 9.10903 14.3707 8.74113 14.0845L8.49586 13.8392Z" fill="white"/>
<path d="M17.1218 5.25927L18.2566 4.70689C18.2986 4.6644 18.3827 4.62191 18.4247 4.57942L20.1479 2.24243C20.274 2.07247 20.274 1.81753 20.1059 1.69005L18.9291 0.500317C18.803 0.372845 18.5508 0.330355 18.3827 0.457826L16.0711 2.19994C16.0291 2.24243 15.9871 2.28492 15.945 2.3699L15.3987 3.51715L11.2378 7.59625L13.003 9.38086L17.1218 5.25927Z" fill="white"/>
<path d="M18.0905 13.4256C17.1014 12.3844 15.6771 12.0096 14.3319 12.3844L7.88306 5.55417C7.96219 5.17934 8.00175 4.84615 8.00175 4.47132C8.00175 3.43012 7.60611 2.38892 6.85441 1.59761C5.82575 0.473112 4.28278 0.0982802 2.85849 0.598056C2.77936 0.639704 2.66067 0.764648 2.62111 0.93124C2.62111 1.05618 2.66067 1.18113 2.7398 1.30607L4.67841 3.34682C5.11361 3.80495 5.11361 4.59626 4.67841 5.05439C4.24321 5.51252 3.49151 5.51252 3.05631 5.05439L1.11769 3.01364C0.999003 2.93034 0.880312 2.8887 0.722058 2.93034C0.603367 2.93034 0.484677 3.05529 0.445113 3.18023C-0.0296494 4.63791 0.326422 6.26218 1.35507 7.34503C2.06722 8.13635 3.09587 8.55283 4.12452 8.55283C4.44103 8.55283 4.7971 8.51118 5.11361 8.42788L11.602 15.2582C11.246 16.6742 11.6416 18.1735 12.5911 19.2147C13.3428 20.006 14.2924 20.3809 15.321 20.3809C15.7562 20.3809 16.1518 20.2976 16.587 20.1726C16.7057 20.131 16.8244 20.006 16.864 19.8811C16.9035 19.7561 16.864 19.5895 16.7453 19.5063L14.8067 17.4655C14.6089 17.2573 14.4506 16.9241 14.4506 16.5909C14.4506 16.2577 14.5693 15.9662 14.8067 15.7163C15.0441 15.4664 15.321 15.3415 15.6375 15.3415C15.954 15.3415 16.231 15.4664 16.4683 15.7163L18.407 17.757C18.5257 17.8403 18.6443 17.882 18.763 17.882C18.8817 17.8403 19.0004 17.757 19.04 17.6321C19.1587 17.2156 19.2378 16.7575 19.2378 16.2994C19.2378 15.2165 18.8422 14.1753 18.0905 13.4256Z" fill="white"/>
</svg>
